<svg width="392" height="72" viewBox="0 0 392 72" fill="none" xmlns="http://www.w3.org/2000/svg">
<path d="M85.9247 18.6364H95.4062L101.39 43.0682H101.816L115.861 18.6364H125.342L119.305 55H111.848L115.79 31.3317H115.47L102.189 54.8224H97.093L91.6243 31.2429H91.3224L87.3452 55H79.8878L85.9247 18.6364ZM133.204 55.5149C131.475 55.5149 129.978 55.2131 128.711 54.6094C127.457 53.9938 126.533 53.0824 125.942 51.875C125.35 50.6676 125.202 49.1702 125.498 47.3828C125.758 45.8677 126.249 44.6011 126.971 43.5831C127.705 42.5533 128.599 41.7247 129.653 41.0973C130.706 40.4699 131.872 39.9905 133.15 39.6591C134.441 39.3277 135.772 39.1027 137.145 38.9844C138.732 38.8187 140.022 38.6589 141.016 38.505C142.022 38.3511 142.774 38.1321 143.271 37.848C143.768 37.5521 144.07 37.1141 144.177 36.5341V36.4276C144.354 35.3149 144.147 34.4508 143.555 33.8352C142.975 33.2079 142.046 32.8942 140.768 32.8942C139.418 32.8942 138.27 33.1901 137.323 33.782C136.388 34.3738 135.719 35.1255 135.317 36.0369L128.427 35.4688C129.043 33.8116 129.972 32.3793 131.215 31.1719C132.47 29.9527 133.979 29.0175 135.743 28.3665C137.506 27.7036 139.483 27.3722 141.673 27.3722C143.188 27.3722 144.603 27.5497 145.917 27.9048C147.242 28.2599 148.385 28.8104 149.344 29.5561C150.314 30.3018 151.013 31.2607 151.439 32.4325C151.877 33.5926 151.965 34.9834 151.705 36.6051L148.633 55H141.46L142.099 51.218H141.886C141.306 52.0703 140.596 52.822 139.756 53.473C138.915 54.1122 137.95 54.6153 136.861 54.9822C135.772 55.3374 134.553 55.5149 133.204 55.5149ZM136.24 50.2947C137.341 50.2947 138.353 50.0758 139.276 49.6378C140.211 49.188 140.981 48.5843 141.584 47.8267C142.2 47.0691 142.59 46.2109 142.756 45.2521L143.218 42.358C142.981 42.5118 142.638 42.648 142.188 42.7663C141.75 42.8847 141.271 42.9972 140.75 43.1037C140.241 43.1984 139.726 43.2872 139.205 43.37C138.684 43.4411 138.217 43.5121 137.802 43.5831C136.891 43.7133 136.074 43.9205 135.352 44.2045C134.63 44.4886 134.044 44.8733 133.594 45.3587C133.144 45.8321 132.866 46.424 132.76 47.1342C132.594 48.1641 132.837 48.9512 133.488 49.4957C134.151 50.0284 135.068 50.2947 136.24 50.2947ZM165.084 65.7955C162.622 65.7955 160.568 65.4581 158.923 64.7834C157.289 64.1205 156.046 63.215 155.194 62.0668C154.354 60.9186 153.892 59.6283 153.809 58.196L160.982 57.255C161.113 57.8113 161.361 58.3262 161.728 58.7997C162.107 59.2732 162.646 59.652 163.344 59.9361C164.054 60.2202 164.972 60.3622 166.096 60.3622C167.741 60.3622 169.174 59.9598 170.393 59.1548C171.612 58.3617 172.364 57.0301 172.648 55.1598L173.465 50.1705H173.145C172.695 50.928 172.08 51.6442 171.298 52.3189C170.529 52.9936 169.588 53.544 168.475 53.9702C167.374 54.3963 166.102 54.6094 164.658 54.6094C162.598 54.6094 160.811 54.1359 159.296 53.1889C157.792 52.2301 156.703 50.7682 156.029 48.8033C155.366 46.8265 155.283 44.3288 155.78 41.3104C156.301 38.2209 157.236 35.6404 158.585 33.5689C159.935 31.4974 161.533 29.9467 163.379 28.9169C165.226 27.8871 167.15 27.3722 169.15 27.3722C170.677 27.3722 171.908 27.6326 172.843 28.1534C173.79 28.6624 174.518 29.3016 175.027 30.071C175.536 30.8286 175.897 31.5743 176.11 32.3082H176.412L177.158 27.7273H184.669L180.088 55.2663C179.721 57.5982 178.839 59.5395 177.442 61.0902C176.057 62.6527 174.299 63.8246 172.169 64.6058C170.038 65.3989 167.676 65.7955 165.084 65.7955ZM167.925 48.9276C169.132 48.9276 170.215 48.6257 171.174 48.022C172.145 47.4065 172.956 46.5305 173.607 45.3942C174.258 44.246 174.713 42.8729 174.974 41.2749C175.234 39.6768 175.228 38.2919 174.956 37.12C174.696 35.9363 174.187 35.0189 173.429 34.3679C172.683 33.7169 171.701 33.3913 170.482 33.3913C169.227 33.3913 168.126 33.7287 167.179 34.4034C166.232 35.0663 165.445 35.9896 164.818 37.1733C164.202 38.357 163.77 39.7242 163.521 41.2749C163.261 42.8492 163.249 44.2105 163.486 45.3587C163.735 46.495 164.226 47.3769 164.96 48.0043C165.694 48.6198 166.682 48.9276 167.925 48.9276ZM186.142 55L190.688 27.7273H198.252L193.706 55H186.142ZM195.251 24.1761C194.126 24.1761 193.197 23.8033 192.463 23.0575C191.741 22.3 191.445 21.4003 191.575 20.3587C191.706 19.2933 192.215 18.3937 193.102 17.6598C193.99 16.9141 194.996 16.5412 196.121 16.5412C197.245 16.5412 198.163 16.9141 198.873 17.6598C199.583 18.3937 199.879 19.2933 199.761 20.3587C199.642 21.4003 199.139 22.3 198.252 23.0575C197.376 23.8033 196.375 24.1761 195.251 24.1761ZM212.017 55.5327C209.211 55.5327 206.903 54.9408 205.092 53.7571C203.293 52.5616 202.032 50.9044 201.31 48.7855C200.6 46.6667 200.475 44.2282 200.937 41.4702C201.387 38.6766 202.328 36.2263 203.76 34.1193C205.193 32.0005 207.01 30.3492 209.211 29.1655C211.425 27.9699 213.911 27.3722 216.669 27.3722C219.048 27.3722 221.06 27.8042 222.706 28.6683C224.351 29.5324 225.558 30.7457 226.328 32.3082C227.097 33.8707 227.358 35.7055 227.109 37.8125H219.989C220.001 36.4631 219.652 35.3681 218.941 34.5277C218.231 33.6873 217.19 33.267 215.816 33.267C214.633 33.267 213.544 33.5866 212.549 34.2259C211.567 34.8532 210.732 35.7706 210.046 36.978C209.371 38.1854 208.898 39.6473 208.625 41.3636C208.341 43.1037 208.335 44.5833 208.608 45.8026C208.88 47.0218 209.401 47.951 210.17 48.5902C210.94 49.2294 211.91 49.549 213.082 49.549C213.958 49.549 214.769 49.3714 215.515 49.0163C216.272 48.6612 216.935 48.1463 217.503 47.4716C218.071 46.785 218.509 45.9624 218.817 45.0036H225.955C225.47 47.0987 224.588 48.9335 223.309 50.5078C222.043 52.0821 220.451 53.3132 218.533 54.201C216.615 55.0888 214.443 55.5327 212.017 55.5327ZM240.825 55L246.862 18.6364H261.422C264.097 18.6364 266.263 19.0329 267.92 19.826C269.589 20.6191 270.755 21.7199 271.418 23.1286C272.081 24.5253 272.259 26.1352 271.951 27.9581C271.702 29.3786 271.199 30.6214 270.442 31.6868C269.696 32.7521 268.773 33.6281 267.672 34.3146C266.571 35.0012 265.375 35.4865 264.085 35.7706L264.014 36.1257C265.387 36.1849 266.624 36.5755 267.725 37.2976C268.826 38.0078 269.649 39.014 270.193 40.3161C270.738 41.6181 270.862 43.1629 270.566 44.9503C270.246 46.8797 269.483 48.602 268.276 50.1172C267.068 51.6205 265.458 52.8101 263.446 53.6861C261.446 54.562 259.084 55 256.362 55H240.825ZM249.579 48.7145H255.847C257.977 48.7145 259.605 48.3002 260.729 47.4716C261.854 46.643 262.529 45.5481 262.754 44.1868C262.907 43.1806 262.807 42.2929 262.452 41.5234C262.108 40.754 261.522 40.1503 260.694 39.7124C259.877 39.2744 258.841 39.0554 257.587 39.0554H251.159L249.579 48.7145ZM252.047 33.853H257.746C258.788 33.853 259.753 33.6695 260.641 33.3026C261.54 32.9238 262.28 32.3911 262.86 31.7045C263.452 31.0062 263.825 30.1835 263.979 29.2365C264.192 27.9107 263.896 26.8513 263.091 26.0582C262.298 25.2533 261.055 24.8509 259.362 24.8509H253.538L252.047 33.853ZM286.098 55.5327C283.316 55.5327 281.014 54.9408 279.191 53.7571C277.368 52.5616 276.084 50.9044 275.338 48.7855C274.604 46.6548 274.468 44.175 274.93 41.3459C275.379 38.5523 276.314 36.108 277.735 34.0128C279.155 31.9176 280.961 30.29 283.15 29.13C285.34 27.9581 287.808 27.3722 290.555 27.3722C293.324 27.3722 295.621 27.9699 297.444 29.1655C299.267 30.3492 300.551 32.0064 301.297 34.1371C302.042 36.2678 302.184 38.7476 301.723 41.5767C301.261 44.3584 300.314 46.7969 298.882 48.892C297.45 50.9872 295.644 52.6207 293.466 53.7926C291.288 54.9527 288.832 55.5327 286.098 55.5327ZM286.844 49.6733C288.122 49.6733 289.252 49.3123 290.235 48.5902C291.229 47.8563 292.052 46.862 292.703 45.6072C293.366 44.3407 293.827 42.9084 294.088 41.3104C294.348 39.736 294.366 38.3393 294.141 37.12C293.916 35.889 293.443 34.9183 292.721 34.2081C292.01 33.4979 291.034 33.1428 289.791 33.1428C288.513 33.1428 287.376 33.5097 286.382 34.2436C285.388 34.9657 284.565 35.96 283.914 37.2266C283.263 38.4931 282.807 39.9313 282.547 41.5412C282.298 43.1037 282.28 44.5005 282.493 45.7315C282.706 46.9508 283.174 47.9155 283.896 48.6257C284.618 49.3241 285.601 49.6733 286.844 49.6733ZM316.762 55.5327C313.98 55.5327 311.678 54.9408 309.855 53.7571C308.032 52.5616 306.748 50.9044 306.002 48.7855C305.268 46.6548 305.132 44.175 305.594 41.3459C306.043 38.5523 306.979 36.108 308.399 34.0128C309.819 31.9176 311.625 30.29 313.814 29.13C316.004 27.9581 318.472 27.3722 321.219 27.3722C323.988 27.3722 326.285 27.9699 328.108 29.1655C329.931 30.3492 331.215 32.0064 331.961 34.1371C332.706 36.2678 332.849 38.7476 332.387 41.5767C331.925 44.3584 330.978 46.7969 329.546 48.892C328.114 50.9872 326.309 52.6207 324.131 53.7926C321.952 54.9527 319.496 55.5327 316.762 55.5327ZM317.508 49.6733C318.786 49.6733 319.916 49.3123 320.899 48.5902C321.893 47.8563 322.716 46.862 323.367 45.6072C324.03 44.3407 324.492 42.9084 324.752 41.3104C325.012 39.736 325.03 38.3393 324.805 37.12C324.58 35.889 324.107 34.9183 323.385 34.2081C322.675 33.4979 321.698 33.1428 320.455 33.1428C319.177 33.1428 318.04 33.5097 317.046 34.2436C316.052 34.9657 315.229 35.96 314.578 37.2266C313.927 38.4931 313.471 39.9313 313.211 41.5412C312.962 43.1037 312.944 44.5005 313.157 45.7315C313.371 46.9508 313.838 47.9155 314.56 48.6257C315.282 49.3241 316.265 49.6733 317.508 49.6733ZM343.218 47.152L344.727 38.0788H345.828L356.322 27.7273H365.004L351.013 41.4347H349.202L343.218 47.152ZM335.068 55L341.105 18.6364H348.669L342.632 55H335.068ZM352.113 55L346.077 43.1214L351.989 37.777L360.974 55H352.113ZM390.075 35.5043L383.204 35.9304C383.168 35.3267 383.002 34.7881 382.706 34.3146C382.422 33.8293 382.002 33.4446 381.446 33.1605C380.901 32.8764 380.215 32.7344 379.386 32.7344C378.143 32.7344 377.037 33.0185 376.066 33.5866C375.095 34.1548 374.545 34.8828 374.415 35.7706C374.308 36.3388 374.456 36.8182 374.858 37.2088C375.261 37.5994 376.072 37.9309 377.291 38.2031L382.085 39.1974C384.642 39.742 386.488 40.6475 387.625 41.9141C388.773 43.1806 389.181 44.8378 388.85 46.8857C388.554 48.6257 387.791 50.1468 386.559 51.4489C385.328 52.7391 383.766 53.7453 381.872 54.4673C379.978 55.1776 377.877 55.5327 375.569 55.5327C371.864 55.5327 369.046 54.7751 367.117 53.2599C365.188 51.7448 364.258 49.6911 364.329 47.0987L371.716 46.7081C371.775 47.8208 372.166 48.6612 372.888 49.2294C373.61 49.7857 374.598 50.0698 375.853 50.0817C377.261 50.1054 378.457 49.8153 379.439 49.2116C380.434 48.5961 380.996 47.8504 381.126 46.9744C381.221 46.3589 381.043 45.8617 380.594 45.483C380.156 45.1042 379.351 44.7905 378.179 44.5419L373.633 43.6009C371.053 43.0682 369.2 42.1153 368.076 40.7422C366.951 39.3691 366.567 37.6231 366.922 35.5043C367.206 33.8116 367.91 32.3615 369.035 31.1541C370.171 29.9349 371.633 28.9998 373.42 28.3487C375.22 27.6977 377.25 27.3722 379.51 27.3722C383.05 27.3722 385.713 28.1001 387.501 29.5561C389.3 31.0121 390.158 32.9948 390.075 35.5043Z" fill="white"/>
<path d="M48.9684 26.3888L45.6739 23.1023L22.9339 45.898L26.2284 49.1845L48.9684 26.3888Z" fill="white"/>
<path d="M48.9689 26.3892L45.6744 23.1027L22.9343 45.8984L26.2288 49.1849L48.9689 26.3892Z" fill="#838383"/>
<path d="M47.5749 12.9583C48.6795 12.9583 49.5749 12.0629 49.5749 10.9583C49.5749 9.85374 48.6795 8.95831 47.5749 8.95831C46.4703 8.95831 45.5749 9.85374 45.5749 10.9583C45.5749 12.0629 46.4703 12.9583 47.5749 12.9583Z" fill="#3C2BFC"/>
<path d="M56 30.3101C57.1046 30.3101 58 29.4147 58 28.3101C58 27.2056 57.1046 26.3101 56 26.3101C54.8954 26.3101 54 27.2056 54 28.3101C54 29.4147 54.8954 30.3101 56 30.3101Z" fill="#3C2BFC"/>
<path d="M55.7434 17.9776L53.9695 16.2081C53.7976 16.0365 53.5191 16.0369 53.3476 16.2088L16.1674 53.4801C15.9958 53.6521 15.9962 53.9305 16.1681 54.1021L17.9419 55.8716C18.1139 56.0431 18.3924 56.0428 18.5639 55.8708L55.7441 18.5995C55.9157 18.4276 55.9153 18.1491 55.7434 17.9776Z" stroke="white" stroke-width="2" stroke-miterlimit="10"/>
<path d="M45.3062 23.8732L47.6346 26.0854" stroke="white" stroke-width="2" stroke-miterlimit="10"/>
<path d="M23.4413 46.1937L25.8379 48.5844" stroke="white" stroke-width="2" stroke-miterlimit="10"/>
<path d="M47.5749 8.95831V7.29291" stroke="#FF7A00" stroke-width="2" stroke-miterlimit="10" stroke-linecap="round"/>
<path d="M47.5749 14.6237V12.9583" stroke="#FF7A00" stroke-width="2" stroke-miterlimit="10" stroke-linecap="round"/>
<path d="M45.5749 10.9583H43.9096" stroke="#FF7A00" stroke-width="2" stroke-miterlimit="10" stroke-linecap="round"/>
<path d="M51.2403 10.9583H49.5749" stroke="#FF7A00" stroke-width="2" stroke-miterlimit="10" stroke-linecap="round"/>
<path d="M56 26.3101V24.6447" stroke="#FF7A00" stroke-width="2" stroke-miterlimit="10" stroke-linecap="round"/>
<path d="M56 31.9755V30.3101" stroke="#FF7A00" stroke-width="2" stroke-miterlimit="10" stroke-linecap="round"/>
<path d="M54 28.3101H52.3346" stroke="#FF7A00" stroke-width="2" stroke-miterlimit="10" stroke-linecap="round"/>
<path d="M59.6654 28.3101H58" stroke="#FF7A00" stroke-width="2" stroke-miterlimit="10" stroke-linecap="round"/>
</svg>
